<svg width="122" height="50" viewBox="0 0 122 50" fill="none" xmlns="http://www.w3.org/2000/svg">
<path fill-rule="evenodd" clip-rule="evenodd" d="M20.9826 21.3218L27.4436 22.0075C27.7851 22.0431 28.0329 22.3424 27.9964 22.6758C27.9808 22.8196 27.9138 22.9467 27.8164 23.0419C27.5017 23.3521 27.1966 23.6463 26.902 23.9296C24.9333 25.8255 23.4498 27.255 23.2764 29.7451C23.1842 31.0701 23.9378 32.2948 24.7325 33.5849C25.9273 35.5265 27.2041 37.6011 26.3589 40.6004C25.9489 42.0562 25.2242 43.3746 24.2853 44.5869C23.3627 45.7782 22.2259 46.8736 20.9744 47.9015C20.7683 48.07 20.4834 48.0867 20.2639 47.9625L16.8638 46.0463L17.7313 45.1339L20.5065 46.6986C21.5533 45.8116 22.5049 44.8702 23.2906 43.8554C24.1424 42.7549 24.7964 41.5716 25.1603 40.283C25.8648 37.7827 24.7287 35.937 23.6655 34.2096C22.7675 32.7517 21.9156 31.3672 22.0347 29.6659C22.2393 26.7233 23.862 25.155 26.0159 23.0804L20.098 22.4521L20.9826 21.3218Z" fill="white"/>
<path fill-rule="evenodd" clip-rule="evenodd" d="M5.0883 18.2942L17.241 19.5843C14.7352 22.0569 12.7353 23.57 12.5188 26.6776C12.2725 30.2115 16.9791 32.6036 15.6228 37.4138C14.849 40.1596 12.8677 42.415 10.4385 44.4105L0 38.5266C1.85036 37.3499 3.7037 35.2796 3.96559 33.0612C4.33164 29.9645 0.844454 26.9674 1.72016 23.9696C2.31314 21.9356 3.42692 19.8429 5.0883 18.2942Z" fill="white"/>
<path fill-rule="evenodd" clip-rule="evenodd" d="M11.6765 15.281L25.4653 16.7367C25.8068 16.7723 26.0545 17.0716 26.0181 17.405C26.0002 17.5699 25.9161 17.7123 25.7948 17.8096L24.6878 18.7227C21.7154 21.1671 19.8993 22.5705 18.7357 26.1088C18.0921 28.0657 18.7342 29.8359 19.4529 31.8154C20.307 34.1674 21.2601 36.7941 20.5354 40.4399C20.1537 42.3576 19.2669 44.0494 18.0207 45.6046C16.793 47.1351 15.2261 48.5269 13.4554 49.8722C13.2337 50.04 12.9331 50.0393 12.7144 49.8896L2.32199 42.914C2.02885 42.7397 1.93659 42.3656 2.11515 42.0794C2.16946 41.9929 2.24238 41.9239 2.32571 41.8753C3.66493 41.0733 5.40294 39.4687 6.48102 38.1619C7.39467 37.0542 8.09181 35.8215 8.36486 34.5619C8.74728 32.7996 8.05833 30.9756 7.37607 29.1676C6.53756 26.947 5.7065 24.746 6.6075 22.439C7.17444 20.9891 7.9378 19.5152 8.89088 18.1387C9.75988 16.8835 10.0121 16.4447 11.2003 15.4299C11.3372 15.313 11.5105 15.2643 11.6765 15.281ZM23.8917 17.7929L11.8178 16.5181C10.8037 17.4166 10.6899 17.713 9.9258 18.8179C9.02778 20.1152 8.30831 21.5041 7.77411 22.8712C7.03903 24.7533 7.78974 26.7422 8.54714 28.7485C9.29116 30.7192 10.0419 32.7074 9.58504 34.8132C9.26884 36.2718 8.48018 37.676 7.45196 38.9225C6.50483 40.0716 4.98332 41.568 3.80778 42.3765L13.0283 48.6526C14.5937 47.4395 15.9694 46.1952 17.0423 44.8579C18.1709 43.4494 18.9723 41.9268 19.3138 40.2118C19.9752 36.8878 19.0809 34.426 18.2803 32.2207C17.4879 30.0393 16.7804 28.0882 17.5527 25.7383C18.8242 21.8717 20.7698 20.3622 23.8894 17.7973L23.8917 17.7929Z" fill="white"/>
<path fill-rule="evenodd" clip-rule="evenodd" d="M4.7595 20.3752C4.5549 20.3527 4.40758 20.1711 4.43065 19.9713C4.45371 19.7716 4.63971 19.6278 4.84432 19.6503L14.1519 20.697C14.3565 20.7195 14.5038 20.9011 14.4808 21.1009C14.4577 21.3007 14.2717 21.4445 14.0671 21.422L4.7595 20.3752ZM3.50286 24.5142C3.29826 24.4917 3.15094 24.3101 3.17401 24.1104C3.19707 23.9106 3.38308 23.7668 3.58768 23.7893L8.61646 24.3552C8.82107 24.3777 8.96838 24.5593 8.94532 24.759C8.92225 24.9588 8.73625 25.1026 8.53165 25.0801L3.50286 24.5142ZM3.66803 22.3997C3.46343 22.3772 3.31612 22.1956 3.33918 21.9958C3.36224 21.7961 3.54825 21.6522 3.75285 21.6747L10.7979 22.4673C11.0025 22.4898 11.1498 22.6714 11.1268 22.8711C11.1037 23.0709 10.9177 23.2147 10.7131 23.1922L3.66803 22.3997Z" fill="white"/>
<path fill-rule="evenodd" clip-rule="evenodd" d="M5.57558 33.7286C5.28467 35.4713 3.75498 37.1398 2.63599 38.1771C3.34503 38.6239 3.8584 38.9471 4.56744 39.3946C6.22957 38.2069 7.69676 36.6393 7.71759 34.4914L5.57558 33.7286ZM7.81878 31.795L10.1208 32.2235C10.4065 33.2667 10.7294 34.1972 10.7762 35.2606C10.8767 37.5604 9.283 39.8805 7.53978 41.1256C6.83073 40.6781 6.12094 40.2314 5.4119 39.7839C6.57926 38.7016 8.19376 36.9328 8.38274 35.1088C8.50178 33.9516 8.21162 32.8838 7.81878 31.795ZM9.75917 29.4734C10.062 31.9402 11.9644 33.3436 11.3662 36.4752C11.0225 38.2766 9.54712 40.0817 8.37977 41.1641C9.08881 41.6115 9.57093 41.9152 10.28 42.3619C12.0239 41.1169 13.0656 39.359 13.7381 37.2974C14.7827 34.0955 12.361 32.1952 11.8439 29.8569C11.0604 29.7131 10.5426 29.6172 9.75917 29.4734Z" fill="white"/>
<ellipse cx="17.5001" cy="6.94444" rx="6.65" ry="6.94444" fill="white"/>
<path d="M23.05 6.25C23.05 9.28194 20.5708 11.75 17.5 11.75C14.4291 11.75 11.95 9.28194 11.95 6.25C11.95 3.21806 14.4291 0.75 17.5 0.75C20.5708 0.75 23.05 3.21806 23.05 6.25Z" fill="white" stroke="white" stroke-width="1.5"/>
<path d="M32.552 45V23.396H39.064V26.564C39.7973 25.3907 40.78 24.496 42.012 23.88C43.244 23.264 44.6227 22.956 46.148 22.956C48.7 22.956 50.6067 23.704 51.868 25.2C53.1293 26.6667 53.76 28.94 53.76 32.02V45H47.116V32.328C47.116 30.832 46.8373 29.7613 46.28 29.116C45.7227 28.4413 44.9013 28.104 43.816 28.104C42.408 28.104 41.2787 28.544 40.428 29.424C39.6067 30.304 39.196 31.4773 39.196 32.944V45H32.552ZM64.8851 45L55.4691 23.396H62.4651L67.8771 37.124L73.4651 23.396H80.0211L70.4731 45H64.8851ZM88.8833 45.484C87.27 45.484 85.8473 45.176 84.6153 44.56C83.3833 43.944 82.4007 43.108 81.6673 42.052C80.9633 40.996 80.6113 39.808 80.6113 38.488C80.6113 36.9333 81.022 35.6867 81.8433 34.748C82.6647 33.8093 83.9993 33.1493 85.8473 32.768C87.6953 32.3573 90.1447 32.152 93.1953 32.152H94.7793V31.404C94.7793 30.1133 94.486 29.204 93.8993 28.676C93.3127 28.1187 92.3153 27.84 90.9073 27.84C89.734 27.84 88.4873 28.0307 87.1673 28.412C85.8767 28.764 84.586 29.3067 83.2953 30.04L81.4913 25.596C82.254 25.0973 83.178 24.6427 84.2633 24.232C85.378 23.8213 86.5367 23.5133 87.7393 23.308C88.942 23.0733 90.086 22.956 91.1713 22.956C94.5153 22.956 97.0087 23.7187 98.6513 25.244C100.294 26.74 101.115 29.072 101.115 32.24V45H94.9113V41.744C94.4713 42.888 93.7233 43.7973 92.6673 44.472C91.6407 45.1467 90.3793 45.484 88.8833 45.484ZM90.3793 41.04C91.6113 41.04 92.6527 40.6147 93.5033 39.764C94.354 38.9133 94.7793 37.8133 94.7793 36.464V35.584H93.2393C90.9807 35.584 89.382 35.7893 88.4433 36.2C87.5047 36.5813 87.0353 37.256 87.0353 38.224C87.0353 39.0453 87.314 39.72 87.8713 40.248C88.458 40.776 89.294 41.04 90.3793 41.04ZM106.072 45V23.396H112.584V27.136C113.61 24.6133 115.81 23.22 119.184 22.956L121.12 22.824L121.516 28.412L117.776 28.808C114.49 29.1307 112.848 30.8027 112.848 33.824V45H106.072Z" fill="white"/>
</svg>
